<?xml version="1.0" encoding="utf-8"?>
<!-- Generator: Adobe Illustrator 25.0.0, SVG Export Plug-In . SVG Version: 6.00 Build 0)  -->
<svg version="1.1" id="Vrstva_1" xmlns="http://www.w3.org/2000/svg" xmlns:xlink="http://www.w3.org/1999/xlink" x="0px" y="0px"
	 viewBox="0 0 100 60" style="enable-background:new 0 0 100 60;" xml:space="preserve">
<style type="text/css">
	.st0{fill:#0000FF;stroke:#000000;stroke-miterlimit:10;}
	.st1{fill:#0000FF;}
	.st2{fill:none;stroke:#000000;stroke-miterlimit:10;}
	.st3{fill:none;stroke:#000000;stroke-linecap:square;stroke-linejoin:round;stroke-miterlimit:10;}
	.st4{fill:none;stroke:#000000;stroke-width:0.75;stroke-miterlimit:10;}
	.st5{fill:#FFFFFF;}
	.st6{font-family:'Scriptina';}
	.st7{font-size:10.6918px;}
</style>
<path class="st0" d="M49.86,30.41"/>
<path class="st0" d="M49.86,30.41"/>
<g>
	<g>
		<path class="st1" d="M49.86,16.78c12.68,0,24.63,4.83,33.75,13.62c-9.12,8.79-21.07,13.62-33.75,13.62S25.23,39.19,16.11,30.4
			C25.23,21.61,37.17,16.78,49.86,16.78 M49.86,15.78c-12.7,0-25.4,4.85-35.1,14.55v0.14c9.7,9.7,22.4,14.55,35.1,14.55
			s25.4-4.85,35.1-14.55v-0.14C75.26,20.63,62.56,15.78,49.86,15.78L49.86,15.78z"/>
	</g>
</g>
<g>
	<path class="st1" d="M49.86,16.96c7.07,0,12.82,6.04,12.82,13.45s-5.75,13.45-12.82,13.45s-12.82-6.04-12.82-13.45
		S42.78,16.96,49.86,16.96 M49.86,15.96c-7.64,0-13.82,6.47-13.82,14.45s6.19,14.45,13.82,14.45s13.82-6.47,13.82-14.45
		S57.49,15.96,49.86,15.96L49.86,15.96z"/>
</g>
<path class="st0" d="M49.86,31.04"/>
<path class="st0" d="M49.86,31.04"/>
<path class="st2" d="M50,30.52"/>
<path class="st2" d="M50,30.52"/>
<g>
	<path class="st3" d="M87.24,30.58c-20.59,20.59-53.9,20.59-74.49,0v-0.15c20.59-20.59,53.9-20.59,74.49,0V30.58z"/>
</g>
<ellipse class="st4" cx="50" cy="30.52" rx="14.67" ry="15.34"/>
<path class="st2" d="M50,31.19"/>
<path class="st2" d="M50,31.19"/>
<g>
	<g>
		<path class="st5" d="M50.08,23.19c0.55,0,1.1,0.08,1.63,0.23c-0.1,0.28-0.15,0.58-0.17,0.88c-0.12,1.95,1.42,3.65,3.44,3.77
			c0.08,0,0.15,0.01,0.23,0.01c0.32,0,0.63-0.04,0.94-0.12c0.18,0.62,0.27,1.26,0.27,1.9c0,3.68-2.84,6.67-6.33,6.67
			s-6.33-2.99-6.33-6.67S46.59,23.19,50.08,23.19 M50.08,22.19c-4.05,0-7.33,3.43-7.33,7.67c0,4.23,3.28,7.67,7.33,7.67
			s7.33-3.43,7.33-7.67c0-1.16-0.25-2.26-0.7-3.24c-0.43,0.29-0.95,0.46-1.51,0.46c-0.06,0-0.11,0-0.17-0.01
			c-1.47-0.09-2.59-1.3-2.51-2.71c0.03-0.56,0.26-1.06,0.61-1.46C52.21,22.45,51.18,22.19,50.08,22.19L50.08,22.19z"/>
	</g>
</g>
<g>
	<g>
		<path class="st1" d="M61.61,13.16c-1.39-0.09-2.44-1.23-2.36-2.55c0.03-0.53,0.25-1,0.57-1.38c-0.88-0.42-1.85-0.67-2.89-0.67
			c-3.82,0-6.91,3.24-6.91,7.23c0,3.99,3.09,7.23,6.91,7.23s6.91-3.24,6.91-7.23c0-1.09-0.24-2.13-0.66-3.06
			C62.75,13.03,62.2,13.19,61.61,13.16z"/>
	</g>
</g>
<text transform="matrix(1.225 0 0 1 38.4661 33.4294)" class="st1 st6 st7">LS</text>
</svg>
