<?xml version="1.0" encoding="utf-8"?>
<!-- Generator: Adobe Illustrator 25.0.0, SVG Export Plug-In . SVG Version: 6.00 Build 0)  -->
<svg version="1.1" id="Vrstva_1" xmlns="http://www.w3.org/2000/svg" xmlns:xlink="http://www.w3.org/1999/xlink" x="0px" y="0px"
	 viewBox="0 0 100 60" style="enable-background:new 0 0 100 60;" xml:space="preserve">
<style type="text/css">
	.st0{fill:#0000FF;stroke:#000000;stroke-miterlimit:10;}
	.st1{fill:none;stroke:#000000;stroke-miterlimit:10;}
	.st2{fill:none;stroke:#000000;stroke-width:0.5;stroke-linecap:square;stroke-linejoin:round;stroke-miterlimit:10;}
	.st3{fill:none;stroke:#93885D;stroke-width:0.75;stroke-miterlimit:10;}
	.st4{fill:none;stroke:#000000;stroke-width:0.5;stroke-miterlimit:10;}
	.st5{stroke:#000000;stroke-width:0.25;stroke-miterlimit:10;}
</style>
<path class="st0" d="M49.86,30.41"/>
<path class="st0" d="M49.86,30.41"/>
<path class="st0" d="M49.86,31.04"/>
<path class="st0" d="M49.86,31.04"/>
<path class="st1" d="M50,30.52"/>
<path class="st1" d="M50,30.52"/>
<g>
	<path class="st2" d="M87.24,30.58c-20.59,20.59-53.9,20.59-74.49,0v-0.15c20.59-20.59,53.9-20.59,74.49,0V30.58z"/>
</g>
<ellipse class="st3" cx="50" cy="30.52" rx="14.67" ry="15.34"/>
<path class="st1" d="M50,31.19"/>
<path class="st1" d="M50,31.19"/>
<g>
	<path class="st4" d="M60.61,13.16c-1.39-0.09-2.44-1.23-2.36-2.55c0.03-0.53,0.25-1,0.57-1.38c-0.88-0.42-1.85-0.67-2.89-0.67
		c-3.82,0-6.91,3.24-6.91,7.23c0,3.99,3.09,7.23,6.91,7.23s6.91-3.24,6.91-7.23c0-1.09-0.24-2.13-0.66-3.06
		C61.75,13.03,61.2,13.19,60.61,13.16z"/>
</g>
<g>
	<path d="M32.72,29.77c1.2-0.21,2.54-0.36,4.01-0.45c-0.46-0.46-0.97-0.96-1.51-1.51c-0.54-0.55-1.15-1.16-1.82-1.83
		c-0.79-0.77-1.18-1.46-1.18-2.08c0-0.68,0.48-1.25,1.43-1.7c2.01-0.96,4.38-1.44,7.08-1.44c0.99,0,1.82,0.08,2.47,0.23
		c0.49,0.13,0.92,0.36,1.29,0.68C44.83,22.06,45,22.47,45,22.9c0,0.14-0.02,0.29-0.05,0.43c-0.03,0.15-0.09,0.3-0.17,0.45
		c-0.05,0.1-0.11,0.17-0.16,0.21c-0.04,0.05-0.07,0.05-0.08,0c-0.01-0.04,0-0.13,0.03-0.28c0.03-0.15,0.05-0.31,0.05-0.48
		c0-0.51-0.19-0.94-0.57-1.31c-0.35-0.32-0.82-0.55-1.41-0.67c-0.35-0.08-0.73-0.14-1.14-0.17c-0.41-0.03-0.84-0.05-1.31-0.05
		c-2.52,0-4.59,0.45-6.21,1.35c-0.82,0.42-1.23,0.94-1.23,1.55c0,0.49,0.33,1.1,1,1.84c0.39,0.36,0.9,0.84,1.52,1.42
		c0.62,0.58,1.34,1.28,2.15,2.09c0.23,0,0.51,0,0.84,0c0.34,0,0.72,0,1.14-0.02c0.15,0,0.22,0.02,0.22,0.06
		c0,0.05-0.25,0.08-0.73,0.09c-0.68,0.01-1.1,0.03-1.25,0.05c0.38,0.48,0.57,0.96,0.57,1.46c0,1.01-0.73,1.75-2.18,2.2
		c-0.63,0.19-1.27,0.34-1.93,0.44c-0.66,0.1-1.34,0.15-2.05,0.15c-1.05,0-1.95-0.1-2.7-0.3c-1.12-0.28-1.67-0.75-1.67-1.4
		c0-0.61,0.6-1.1,1.8-1.47C30.44,30.24,31.52,29.98,32.72,29.77z M35.11,29.73c-0.52,0.07-0.98,0.13-1.36,0.19
		c-1.62,0.24-2.95,0.57-3.98,0.97c-1.16,0.44-1.74,0.88-1.74,1.34c0,0.21,0.18,0.43,0.53,0.67c0.25,0.16,0.52,0.27,0.84,0.33
		c0.39,0.08,0.79,0.14,1.18,0.17c0.39,0.03,0.8,0.04,1.22,0.04c0.72,0,1.41-0.06,2.06-0.17s1.29-0.29,1.9-0.51
		c1.21-0.46,1.82-1.07,1.82-1.84c0-0.51-0.23-0.97-0.69-1.38C36.23,29.6,35.63,29.66,35.11,29.73z"/>
	<path d="M44.34,31.37c-0.16,0.08-0.34,0.13-0.54,0.16c-0.12,0.02-0.3,0.03-0.54,0.03c-0.24,0.01-0.5,0.01-0.79,0.02
		c-0.29,0-0.57,0.01-0.86,0.01c-0.29,0-0.54,0-0.75,0c-0.08,0.08-0.16,0.17-0.25,0.27c-0.09,0.1-0.17,0.2-0.25,0.32
		s-0.15,0.23-0.2,0.35c-0.06,0.12-0.09,0.24-0.1,0.37c-0.01,0.12,0.01,0.21,0.05,0.29c0.04,0.08,0.09,0.13,0.16,0.17
		s0.15,0.07,0.24,0.08c0.09,0.01,0.18,0.02,0.27,0.01c0.24-0.03,0.49-0.08,0.76-0.15s0.5-0.15,0.69-0.23
		c0.06-0.03,0.1-0.03,0.13-0.01c0.03,0.02,0.01,0.04-0.04,0.07c-0.08,0.04-0.17,0.09-0.28,0.14s-0.23,0.1-0.35,0.15
		c-0.13,0.05-0.26,0.09-0.4,0.13c-0.14,0.04-0.27,0.07-0.4,0.08c-0.11,0.02-0.23,0.01-0.36-0.03c-0.13-0.03-0.25-0.09-0.35-0.16
		c-0.11-0.07-0.2-0.15-0.27-0.24c-0.07-0.09-0.1-0.19-0.1-0.3c0.02-0.29,0.13-0.59,0.33-0.88c0.2-0.29,0.44-0.57,0.72-0.82
		c0.28-0.25,0.58-0.47,0.89-0.66c0.31-0.18,0.59-0.31,0.84-0.39c0.14-0.03,0.26-0.03,0.37,0.01c0.11,0.04,0.19,0.1,0.25,0.18
		c0.06,0.08,0.1,0.16,0.11,0.26c0.01,0.1-0.02,0.18-0.08,0.26c-0.11,0.15-0.3,0.27-0.58,0.38c-0.28,0.1-0.6,0.17-0.96,0.22
		c0.19,0,0.39,0,0.59,0c0.21,0,0.41,0,0.59,0c0.19,0,0.36-0.01,0.52-0.01c0.16,0,0.3-0.01,0.42-0.02c0.15-0.01,0.3-0.05,0.46-0.1
		c0.15-0.06,0.27-0.12,0.36-0.18c0.04-0.04,0.07-0.05,0.09-0.04s0.02,0.04-0.02,0.07C44.62,31.22,44.51,31.29,44.34,31.37z
		 M43.08,30.56c0.01-0.06-0.01-0.11-0.05-0.15c-0.04-0.04-0.11-0.05-0.19-0.05c-0.08,0-0.18,0.03-0.29,0.07
		c-0.27,0.11-0.53,0.26-0.81,0.44s-0.53,0.38-0.77,0.57c0.19,0,0.38-0.02,0.58-0.05c0.2-0.03,0.39-0.08,0.57-0.14
		c0.18-0.06,0.34-0.13,0.49-0.21c0.15-0.08,0.26-0.17,0.35-0.26C43.03,30.7,43.07,30.62,43.08,30.56z"/>
	<path d="M47.01,30.39c0.13-0.17,0.25-0.33,0.38-0.48c-0.06,0-0.11-0.01-0.17-0.02c-0.05-0.01-0.11-0.01-0.16-0.02
		c-0.1-0.01-0.19-0.05-0.27-0.13s-0.12-0.16-0.12-0.24c0-0.05,0.03-0.1,0.08-0.14c0.34-0.28,0.87-0.48,1.58-0.59h0.02
		c0.21-0.23,0.4-0.44,0.58-0.63c0.18-0.19,0.35-0.36,0.52-0.52c1.64-1.56,3.3-2.56,4.98-2.99c0.56-0.15,1.12-0.22,1.67-0.22
		c0.91,0,1.68,0.19,2.3,0.58c0.59,0.37,0.88,0.82,0.88,1.34c0,0.4-0.18,0.77-0.55,1.12c-0.41,0.4-1,0.73-1.77,0.99
		c-2.88,1-5.71,1.5-8.47,1.5c-0.14,0-0.26,0-0.39,0s-0.24,0-0.37-0.01c-0.16,0.2-0.32,0.41-0.47,0.62
		c-0.16,0.21-0.32,0.43-0.47,0.66c-0.67,0.98-1.01,1.74-1,2.3c0,0.02,0.02,0.05,0.06,0.09c0.03,0.01,0.06,0.01,0.09,0.01
		s0.06,0.01,0.1,0.01c0.04,0.01,0.04,0.03,0.02,0.06c-0.03,0.03-0.06,0.05-0.09,0.06c-0.08,0.03-0.16,0.02-0.24-0.05
		c-0.04-0.04-0.07-0.1-0.09-0.16c-0.03-0.06-0.04-0.13-0.04-0.21c0-0.31,0.21-0.87,0.62-1.69c0.04-0.09,0.03-0.14-0.05-0.14
		c-0.02,0-0.04,0.01-0.06,0.03c-0.19,0.17-0.4,0.35-0.65,0.55c-0.24,0.19-0.52,0.39-0.84,0.6c-0.72,0.49-1.3,0.8-1.76,0.94
		c-0.04,0.01-0.08,0.02-0.11,0.02c-0.27,0-0.4-0.09-0.4-0.27c0-0.36,0.42-0.83,1.27-1.43c0.76-0.53,1.41-0.88,1.95-1.04
		c0.07-0.02,0.13-0.03,0.21-0.04c0.08-0.01,0.15-0.02,0.23-0.02s0.17,0.01,0.26,0.02c0.1,0.01,0.21,0.03,0.33,0.06
		C46.74,30.73,46.88,30.56,47.01,30.39z M42.99,33.1c0,0.12,0.06,0.18,0.18,0.18c0.06,0,0.12-0.01,0.17-0.04
		c0.47-0.23,0.94-0.49,1.39-0.78c0.45-0.29,0.9-0.63,1.33-1.01c0.09-0.08,0.13-0.15,0.13-0.21c0-0.12-0.13-0.18-0.39-0.18
		c-0.09,0-0.19,0.01-0.28,0.02c-0.19,0.03-0.39,0.11-0.62,0.23c-0.23,0.12-0.48,0.29-0.76,0.49c-0.55,0.41-0.92,0.79-1.11,1.13
		C43.01,32.98,42.99,33.04,42.99,33.1z M47.27,29.77c0.07,0,0.14,0.01,0.22,0.02c0.14-0.17,0.28-0.33,0.41-0.49s0.26-0.31,0.38-0.45
		c-0.32,0.06-0.58,0.15-0.81,0.25c-0.22,0.1-0.41,0.22-0.56,0.35c-0.05,0.04-0.08,0.08-0.08,0.14c0,0.09,0.08,0.14,0.24,0.16
		C47.14,29.76,47.2,29.77,47.27,29.77z M47.83,29.81c0.1,0,0.2,0.01,0.3,0.01s0.21,0,0.33,0c2.99,0,5.77-0.55,8.34-1.66
		c1.49-0.64,2.24-1.32,2.24-2.03c0-0.46-0.3-0.85-0.9-1.15c-0.6-0.32-1.3-0.48-2.11-0.48c-0.53,0-1.04,0.08-1.54,0.23
		C52.16,25.46,49.94,27.16,47.83,29.81z"/>
</g>
<g>
	<path d="M65.6,35.59c-0.12,0.08-0.25,0.13-0.4,0.16c-0.09,0.02-0.23,0.03-0.4,0.03c-0.18,0.01-0.37,0.01-0.59,0.02
		s-0.43,0.01-0.64,0.01c-0.21,0-0.4,0-0.56,0c-0.06,0.08-0.12,0.17-0.19,0.27c-0.07,0.1-0.13,0.2-0.19,0.32s-0.11,0.23-0.15,0.35
		c-0.04,0.12-0.07,0.24-0.07,0.37c-0.01,0.12,0.01,0.21,0.04,0.29c0.03,0.08,0.07,0.13,0.12,0.17c0.05,0.04,0.11,0.07,0.18,0.08
		c0.07,0.01,0.13,0.02,0.2,0.01c0.18-0.03,0.37-0.08,0.56-0.15c0.2-0.07,0.37-0.15,0.52-0.23c0.04-0.03,0.08-0.03,0.1-0.01
		c0.02,0.02,0.01,0.04-0.03,0.07c-0.06,0.04-0.13,0.09-0.21,0.14s-0.17,0.1-0.26,0.15c-0.1,0.05-0.2,0.09-0.3,0.13
		c-0.1,0.04-0.21,0.07-0.3,0.08c-0.08,0.02-0.17,0.01-0.26-0.03s-0.18-0.09-0.26-0.16c-0.08-0.07-0.15-0.15-0.2-0.24
		c-0.05-0.09-0.08-0.19-0.07-0.3c0.02-0.29,0.1-0.59,0.24-0.88c0.15-0.29,0.33-0.57,0.54-0.82c0.21-0.25,0.43-0.47,0.66-0.66
		s0.44-0.31,0.63-0.39c0.1-0.03,0.19-0.03,0.27,0.01s0.14,0.1,0.19,0.18s0.07,0.16,0.08,0.26c0.01,0.1-0.01,0.18-0.06,0.26
		c-0.08,0.15-0.22,0.27-0.43,0.38c-0.21,0.1-0.45,0.17-0.71,0.22c0.14,0,0.29,0,0.44,0c0.15,0,0.3,0,0.44,0
		c0.14,0,0.27-0.01,0.39-0.01c0.12-0.01,0.22-0.01,0.31-0.02c0.11-0.01,0.23-0.05,0.34-0.1s0.2-0.12,0.27-0.18
		c0.03-0.04,0.05-0.05,0.07-0.04s0.01,0.03-0.01,0.07C65.8,35.44,65.72,35.51,65.6,35.59z M64.66,34.78
		c0.01-0.06-0.01-0.11-0.04-0.15s-0.08-0.05-0.14-0.05c-0.06,0-0.13,0.03-0.21,0.07c-0.2,0.11-0.4,0.26-0.6,0.44
		s-0.39,0.38-0.58,0.57c0.14,0,0.28-0.02,0.43-0.05c0.15-0.03,0.29-0.08,0.42-0.14c0.13-0.06,0.25-0.13,0.36-0.21
		s0.2-0.17,0.26-0.26C64.62,34.92,64.65,34.84,64.66,34.78z"/>
	<path d="M67.58,34.61c0.1-0.17,0.19-0.32,0.28-0.48c-0.04,0-0.08-0.01-0.12-0.02c-0.04,0-0.08-0.01-0.12-0.02
		c-0.07-0.01-0.14-0.05-0.2-0.13s-0.09-0.16-0.09-0.24c0-0.05,0.02-0.1,0.06-0.14c0.26-0.28,0.65-0.48,1.18-0.59h0.02
		c0.15-0.23,0.3-0.44,0.43-0.63s0.26-0.36,0.38-0.52c1.22-1.56,2.46-2.56,3.7-2.99c0.42-0.15,0.83-0.22,1.24-0.22
		c0.68,0,1.25,0.19,1.71,0.58c0.44,0.37,0.66,0.82,0.66,1.34c0,0.4-0.13,0.77-0.41,1.12c-0.3,0.39-0.74,0.72-1.32,0.99
		c-2.14,1-4.24,1.5-6.3,1.5c-0.1,0-0.2,0-0.29,0c-0.09,0-0.18,0-0.27-0.01c-0.12,0.2-0.23,0.41-0.35,0.62s-0.23,0.43-0.35,0.66
		c-0.5,0.98-0.75,1.74-0.74,2.3c0,0.02,0.02,0.05,0.05,0.09c0.02,0,0.04,0.01,0.06,0.01c0.02,0,0.05,0.01,0.07,0.01
		c0.03,0.01,0.03,0.03,0.02,0.06c-0.02,0.03-0.04,0.05-0.06,0.06c-0.06,0.03-0.12,0.02-0.18-0.05c-0.03-0.04-0.05-0.1-0.07-0.16
		c-0.02-0.06-0.03-0.13-0.03-0.21c0-0.31,0.16-0.87,0.46-1.69c0.03-0.09,0.02-0.14-0.04-0.14c-0.02,0-0.03,0.01-0.05,0.03
		c-0.14,0.17-0.3,0.35-0.48,0.55s-0.39,0.39-0.62,0.6c-0.53,0.48-0.97,0.8-1.31,0.94c-0.03,0.01-0.06,0.02-0.08,0.02
		c-0.2,0-0.3-0.09-0.3-0.27c0-0.36,0.32-0.83,0.95-1.43c0.56-0.53,1.05-0.88,1.45-1.04c0.05-0.02,0.1-0.03,0.16-0.04
		c0.06-0.01,0.11-0.02,0.17-0.02s0.12,0.01,0.2,0.02c0.07,0.01,0.15,0.03,0.24,0.06C67.38,34.95,67.48,34.78,67.58,34.61z
		 M64.59,37.32c0,0.12,0.04,0.18,0.14,0.18c0.04,0,0.08-0.01,0.13-0.04c0.35-0.23,0.7-0.49,1.03-0.78s0.67-0.63,0.99-1.01
		c0.06-0.08,0.1-0.15,0.1-0.21c0-0.12-0.1-0.18-0.29-0.18c-0.07,0-0.14,0.01-0.21,0.02c-0.14,0.03-0.29,0.11-0.46,0.23
		c-0.17,0.12-0.36,0.29-0.56,0.49c-0.41,0.41-0.69,0.79-0.82,1.13C64.61,37.2,64.59,37.26,64.59,37.32z M67.77,33.99
		c0.05,0,0.11,0.01,0.16,0.02c0.11-0.17,0.21-0.33,0.31-0.49c0.1-0.16,0.19-0.31,0.28-0.45c-0.23,0.06-0.43,0.15-0.6,0.25
		c-0.17,0.1-0.3,0.22-0.42,0.35c-0.04,0.04-0.06,0.08-0.06,0.14c0,0.09,0.06,0.14,0.18,0.16C67.68,33.98,67.72,33.99,67.77,33.99z
		 M68.19,34.03c0.08,0.01,0.15,0.01,0.22,0.01s0.16,0,0.25,0c2.22,0,4.29-0.55,6.2-1.66c1.11-0.64,1.66-1.32,1.66-2.03
		c0-0.46-0.22-0.85-0.67-1.15c-0.45-0.32-0.97-0.48-1.57-0.48c-0.4,0-0.78,0.08-1.14,0.23C71.41,29.68,69.76,31.38,68.19,34.03z"/>
</g>
<g>
	<path class="st5" d="M51.08,38.38c-0.02,0.03-0.06,0.06-0.12,0.11c-0.06,0.04-0.12,0.08-0.2,0.12c-0.16,0.09-0.27,0.14-0.34,0.14
		c-0.06,0-0.09-0.08-0.09-0.24c0-0.43,0.4-1.17,1.19-2.2c0.32-0.42,0.64-0.82,0.98-1.19c0.34-0.38,0.7-0.75,1.07-1.11
		c0.16-0.31,0.31-0.62,0.44-0.94c0.13-0.32,0.25-0.64,0.36-0.97c0.2-0.62,0.3-1.06,0.3-1.32c0-0.25-0.06-0.42-0.17-0.51
		c-0.11-0.09-0.31-0.12-0.58-0.09c-0.79,0.09-1.82,0.63-3.09,1.63c-1.32,1.04-1.98,1.88-1.98,2.52c0,0.12,0.09,0.21,0.28,0.28
		c0.19,0.06,0.31,0.08,0.37,0.07c0.1-0.01,0.15-0.01,0.15,0.02s-0.06,0.06-0.18,0.1c-0.12,0.04-0.24,0.04-0.37,0
		c-0.08-0.03-0.17-0.11-0.25-0.23c-0.09-0.12-0.13-0.26-0.13-0.41c0-0.46,0.34-1.03,1.01-1.72c0.62-0.62,1.35-1.18,2.18-1.67
		c0.84-0.51,1.5-0.78,1.98-0.81c0.22-0.01,0.45,0.08,0.68,0.25c0.23,0.18,0.35,0.37,0.34,0.57c-0.01,0.31-0.09,0.69-0.23,1.15
		c-0.14,0.46-0.34,0.99-0.59,1.59c0.93-0.81,1.58-1.22,1.95-1.22c0.15,0,0.28,0.06,0.38,0.18c0.11,0.12,0.16,0.25,0.14,0.39
		c-0.11,0.87-0.62,2.24-1.53,4.11c-0.06,0.12-0.03,0.19,0.08,0.19c0.06,0,0.11-0.04,0.15-0.11c0.7-0.93,1.67-2,2.9-3.21
		c1.53-1.47,2.61-2.23,3.24-2.27c0.19-0.01,0.34,0.09,0.46,0.32c0.1,0.21,0.15,0.41,0.15,0.62c0,0.12-0.02,0.21-0.06,0.24
		c-0.41,0.65-0.75,1.21-1.03,1.67c-0.28,0.46-0.49,0.82-0.63,1.08c-0.74,1.35-1.18,2.46-1.31,3.33C59.01,38.86,59,38.89,59,38.91
		c0,0.03,0,0.06,0,0.08c0,0.29,0.11,0.4,0.34,0.35c0.1-0.03,0.22-0.08,0.37-0.16c0.14-0.08,0.31-0.18,0.49-0.32
		c0.34-0.26,0.6-0.5,0.77-0.72c0.07-0.09,0.12-0.13,0.15-0.13c0.02,0,0.03,0.01,0.03,0.03c0,0.04-0.03,0.11-0.09,0.19
		c-0.15,0.23-0.39,0.48-0.71,0.75c-0.19,0.17-0.37,0.3-0.53,0.4c-0.17,0.1-0.32,0.17-0.47,0.21c-0.12,0.04-0.24-0.03-0.35-0.21
		c-0.12-0.18-0.18-0.36-0.18-0.54c-0.01-0.64,0.31-1.66,0.97-3.04c0.26-0.54,0.55-1.09,0.86-1.65c0.31-0.56,0.64-1.12,1.01-1.69
		c0.06-0.08,0.1-0.16,0.12-0.23c0.02-0.07,0.03-0.13,0.03-0.18c0-0.16-0.11-0.24-0.33-0.24c-0.1,0-0.2,0.02-0.31,0.04
		c-0.65,0.17-1.7,0.96-3.15,2.39c-1.27,1.25-2.39,2.51-3.35,3.78c-0.07,0.1-0.19,0.14-0.34,0.14c-0.12,0-0.18-0.04-0.18-0.11
		c0-0.01,0-0.03,0.01-0.04s0.01-0.03,0.02-0.05c0.64-1.21,1.13-2.24,1.49-3.09c0.36-0.85,0.58-1.53,0.68-2.03
		c0.03-0.24-0.06-0.36-0.25-0.36c-0.29,0-0.7,0.21-1.23,0.63c-0.46,0.34-0.81,0.67-1.06,0.98C52.81,36.07,51.9,37.5,51.08,38.38z
		 M51.54,37.5c0.22-0.31,0.47-0.68,0.74-1.12c0.56-0.87,0.92-1.5,1.08-1.9c-0.43,0.37-0.89,0.89-1.4,1.57c-0.6,0.79-1,1.47-1.2,2.02
		c-0.08,0.2-0.07,0.3,0.02,0.3c0.05,0,0.11-0.04,0.17-0.12C51.12,38.06,51.32,37.81,51.54,37.5z"/>
</g>
</svg>
