<?xml version="1.0" encoding="utf-8"?>
<!-- Generator: Adobe Illustrator 25.0.0, SVG Export Plug-In . SVG Version: 6.00 Build 0)  -->
<svg version="1.1" id="Vrstva_1" xmlns="http://www.w3.org/2000/svg" xmlns:xlink="http://www.w3.org/1999/xlink" x="0px" y="0px"
	 viewBox="0 0 100 60" style="enable-background:new 0 0 100 60;" xml:space="preserve">
<style type="text/css">
	.st0{fill:#0000FF;stroke:#000000;stroke-miterlimit:10;}
	.st1{fill:none;stroke:#000000;stroke-miterlimit:10;}
	.st2{opacity:0.82;enable-background:new    ;}
	.st3{fill:#4A0F00;}
	.st4{fill:none;stroke:#000000;stroke-width:0.5;stroke-miterlimit:10;}
	.st5{font-family:'Scriptina';}
	.st6{font-size:17.578px;}
	.st7{font-size:15.1831px;}
	.st8{stroke:#000000;stroke-width:0.5;stroke-miterlimit:10;}
	.st9{font-size:8.3263px;}
</style>
<path class="st0" d="M49.86,30.41"/>
<path class="st0" d="M49.86,30.41"/>
<path class="st0" d="M49.86,31.04"/>
<path class="st0" d="M49.86,31.04"/>
<path class="st1" d="M50,30.52"/>
<path class="st1" d="M50,30.52"/>
<g>
	<g>
		<path d="M87.47,30.68l-3.9,3.56c-1.37,1.07-2.78,2.06-4.17,3.1c-1.45,0.94-2.97,1.78-4.45,2.67c-1.53,0.8-3.13,1.48-4.69,2.22
			c-6.4,2.66-13.32,4.03-20.25,4.04c-6.93,0-13.85-1.38-20.25-4.04c-6.4-2.65-12.26-6.59-17.17-11.48
			c-0.05-0.05-0.07-0.11-0.07-0.18v-0.15c0-0.07,0.03-0.13,0.07-0.18c4.95-4.85,10.81-8.76,17.2-11.39
			c6.4-2.63,13.3-3.99,20.22-4.02c6.92-0.01,13.84,1.35,20.23,3.99c6.4,2.63,12.27,6.55,17.19,11.43c0.05,0.05,0.07,0.11,0.07,0.18
			C87.49,30.51,87.48,30.6,87.47,30.68z M87.01,30.48c-0.01-0.02-0.02-0.04-0.02-0.05l0.07,0.18c-4.85-4.86-10.65-8.77-16.99-11.41
			c-6.34-2.65-13.2-4.03-20.08-4.05c-6.88-0.02-13.76,1.36-20.1,4.02c-6.35,2.64-12.15,6.56-16.97,11.45L13,30.43v0.15l-0.07-0.18
			c4.86,4.85,10.67,8.74,17.01,11.37c6.34,2.63,13.2,4,20.06,4c6.86,0,13.72-1.37,20.06-4c1.55-0.74,3.13-1.41,4.65-2.2
			c1.47-0.89,2.97-1.72,4.41-2.65c1.37-1.02,2.78-2.02,4.13-3.06L87.01,30.48z"/>
	</g>
</g>
<g class="st2">
	<path class="st3" d="M50,14.98c4-0.03,7.94,1.75,10.64,4.68c2.74,2.91,4.26,6.88,4.26,10.87c0.01,3.99-1.5,7.97-4.24,10.89
		c-2.7,2.94-6.65,4.74-10.66,4.7c-4.01,0.02-7.95-1.77-10.65-4.71c-2.74-2.91-4.25-6.9-4.24-10.88c0-3.98,1.52-7.96,4.26-10.86
		C42.07,16.73,46,14.96,50,14.98z M50,15.38c-3.89-0.03-7.71,1.71-10.33,4.56c-2.66,2.83-4.13,6.7-4.12,10.58
		c0,3.88,1.48,7.74,4.14,10.56c2.62,2.84,6.44,4.56,10.31,4.53c3.87,0.02,7.68-1.69,10.31-4.54c2.66-2.82,4.13-6.68,4.13-10.56
		c0.01-3.87-1.46-7.74-4.12-10.57C57.7,17.09,53.89,15.36,50,15.38z"/>
</g>
<path class="st1" d="M50,31.19"/>
<path class="st1" d="M50,31.19"/>
<g>
	<path class="st4" d="M60.61,13.16c-1.39-0.09-2.44-1.23-2.36-2.55c0.03-0.53,0.25-1,0.57-1.38c-0.88-0.42-1.85-0.67-2.89-0.67
		c-3.82,0-6.91,3.24-6.91,7.23s3.09,7.23,6.91,7.23s6.91-3.24,6.91-7.23c0-1.09-0.24-2.13-0.66-3.06
		C61.75,13.03,61.2,13.19,60.61,13.16z"/>
</g>
<text transform="matrix(1.195 0 0 1 30 34.7705)" class="st5 st6">L</text>
<text transform="matrix(1.195 0 0 1 30 34.7705)" class="st4 st5 st6">L</text>
<text transform="matrix(1.3446 0 0 1 54.0222 34.7707)" class="st4 st5 st7">S</text>
<text transform="matrix(1.2861 0 0 1 40.6007 33.2257)" class="st8 st5 st9">ívia</text>
</svg>
