<?xml version="1.0" encoding="utf-8"?>
<!-- Generator: Adobe Illustrator 25.0.0, SVG Export Plug-In . SVG Version: 6.00 Build 0)  -->
<svg version="1.1" id="Vrstva_1" xmlns="http://www.w3.org/2000/svg" xmlns:xlink="http://www.w3.org/1999/xlink" x="0px" y="0px"
	 viewBox="0 0 100 60" style="enable-background:new 0 0 100 60;" xml:space="preserve">
<style type="text/css">
	.st0{opacity:0.82;enable-background:new    ;}
	.st1{fill:#4A0F00;}
	.st2{fill:#0000FF;stroke:#000000;stroke-miterlimit:10;}
	.st3{fill:none;stroke:#000000;stroke-miterlimit:10;}
	.st4{stroke:#000000;stroke-width:0.25;stroke-miterlimit:10;}
	.st5{fill:none;stroke:#000000;stroke-width:0.5;stroke-miterlimit:10;}
	.st6{font-family:'Scriptina';}
	.st7{font-size:17.578px;}
	.st8{font-size:15.1831px;}
	.st9{font-size:8.3263px;}
</style>
<g class="st0">
	<path class="st1" d="M49.9,14.8c4,0,7.9,1.8,10.6,4.7c2.7,2.9,4.3,6.9,4.3,10.9c0,4-1.5,8-4.2,10.9c-2.7,2.9-6.7,4.7-10.7,4.7
		c-4,0-8-1.8-10.6-4.7c-2.7-2.9-4.2-6.9-4.2-10.9c0-4,1.5-8,4.3-10.9C41.9,16.6,45.9,14.8,49.9,14.8z M49.9,15.2
		c-3.9,0-7.7,1.7-10.3,4.6c-2.7,2.8-4.1,6.7-4.1,10.6c0,3.9,1.5,7.7,4.1,10.6c2.6,2.8,6.4,4.6,10.3,4.5c3.9,0,7.7-1.7,10.3-4.5
		c2.7-2.8,4.1-6.7,4.1-10.6c0-3.9-1.5-7.7-4.1-10.6C57.6,16.9,53.7,15.2,49.9,15.2z"/>
</g>
<path class="st2" d="M49.9,30.4"/>
<path class="st2" d="M49.9,30.4"/>
<path class="st2" d="M49.9,31"/>
<path class="st2" d="M49.9,31"/>
<path class="st3" d="M50,30.5"/>
<path class="st3" d="M50,30.5"/>
<g>
	<g>
		<path class="st4" d="M87.5,30.7l-3.9,3.6c-1.4,1.1-2.8,2.1-4.2,3.1c-1.4,0.9-3,1.8-4.4,2.7c-1.5,0.8-3.1,1.5-4.7,2.2
			c-6.4,2.7-13.3,4-20.2,4c-6.9,0-13.8-1.4-20.2-4c-6.4-2.7-12.3-6.6-17.2-11.5c-0.1,0-0.1-0.1-0.1-0.2v-0.1c0-0.1,0-0.1,0.1-0.2
			c4.9-4.9,10.8-8.8,17.2-11.4c6.4-2.6,13.3-4,20.2-4c6.9,0,13.8,1.4,20.2,4c6.4,2.6,12.3,6.6,17.2,11.4c0.1,0,0.1,0.1,0.1,0.2
			C87.5,30.5,87.5,30.6,87.5,30.7z M87,30.5C87,30.5,87,30.4,87,30.5l0.1,0.1c-4.8-4.9-10.7-8.8-17-11.4c-6.3-2.6-13.2-4-20.1-4.1
			c-6.9,0-13.8,1.4-20.1,4c-6.4,2.6-12.1,6.6-17,11.4l0.1-0.2v0.1l-0.1-0.2c4.9,4.9,10.7,8.7,17,11.4s13.2,4,20.1,4s13.7-1.4,20.1-4
			c1.6-0.7,3.1-1.4,4.7-2.2c1.5-0.9,3-1.7,4.4-2.7c1.4-1,2.8-2,4.1-3.1L87,30.5z"/>
	</g>
</g>
<path class="st3" d="M50,31.2"/>
<path class="st3" d="M50,31.2"/>
<g>
	<path class="st5" d="M60.6,13.2c-1.4-0.1-2.4-1.2-2.4-2.6c0-0.5,0.2-1,0.6-1.4c-0.9-0.4-1.8-0.7-2.9-0.7c-3.8,0-6.9,3.2-6.9,7.2
		s3.1,7.2,6.9,7.2s6.9-3.2,6.9-7.2c0-1.1-0.2-2.1-0.7-3.1C61.8,13,61.2,13.2,60.6,13.2z"/>
</g>
<text transform="matrix(1.195 0 0 1 29.9995 34.7705)" class="st6 st7">L</text>
<text transform="matrix(1.195 0 0 1 29.9995 34.7705)" class="st5 st6 st7">L</text>
<text transform="matrix(1.3446 0 0 1 54.0215 34.7705)" class="st5 st6 st8">S</text>
<text transform="matrix(1.2861 0 0 1 40.6011 33.2256)" class="st6 st9">ívia</text>
<text transform="matrix(1.2861 0 0 1 40.6011 33.2256)" class="st5 st6 st9">ívia</text>
</svg>
