<?xml version="1.0" encoding="utf-8"?>
<!-- Generator: Adobe Illustrator 25.0.0, SVG Export Plug-In . SVG Version: 6.00 Build 0)  -->
<svg version="1.1" id="Vrstva_1" xmlns="http://www.w3.org/2000/svg" xmlns:xlink="http://www.w3.org/1999/xlink" x="0px" y="0px"
	 viewBox="0 0 100 60" style="enable-background:new 0 0 100 60;" xml:space="preserve">
<style type="text/css">
	.st0{fill:#0000FF;stroke:#000000;stroke-miterlimit:10;}
	.st1{fill:none;stroke:#000000;stroke-miterlimit:10;}
	.st2{fill:none;stroke:#000000;stroke-width:0.5;stroke-linecap:square;stroke-linejoin:round;stroke-miterlimit:10;}
	.st3{opacity:0.82;fill:none;stroke:#4A0F00;stroke-width:0.5;stroke-miterlimit:10;enable-background:new    ;}
	.st4{fill:none;stroke:#000000;stroke-width:0.5;stroke-miterlimit:10;}
	.st5{font-family:'Scriptina';}
	.st6{font-size:17.578px;}
	.st7{font-size:15.1831px;}
	.st8{stroke:#000000;stroke-width:0.5;stroke-miterlimit:10;}
	.st9{font-size:8.3263px;}
</style>
<path class="st0" d="M49.86,30.41"/>
<path class="st0" d="M49.86,30.41"/>
<path class="st0" d="M49.86,31.04"/>
<path class="st0" d="M49.86,31.04"/>
<path class="st1" d="M50,30.52"/>
<path class="st1" d="M50,30.52"/>
<g>
	<path class="st2" d="M87.24,30.58c-20.59,20.59-53.9,20.59-74.49,0v-0.15c20.59-20.59,53.9-20.59,74.49,0V30.58z"/>
</g>
<ellipse class="st3" cx="50" cy="30.52" rx="14.67" ry="15.34"/>
<path class="st1" d="M50,31.19"/>
<path class="st1" d="M50,31.19"/>
<g>
	<path class="st4" d="M60.61,13.16c-1.39-0.09-2.44-1.23-2.36-2.55c0.03-0.53,0.25-1,0.57-1.38c-0.88-0.42-1.85-0.67-2.89-0.67
		c-3.82,0-6.91,3.24-6.91,7.23s3.09,7.23,6.91,7.23s6.91-3.24,6.91-7.23c0-1.09-0.24-2.13-0.66-3.06
		C61.75,13.03,61.2,13.19,60.61,13.16z"/>
</g>
<text transform="matrix(1.195 0 0 1 30 34.7705)" class="st5 st6">L</text>
<text transform="matrix(1.195 0 0 1 30 34.7705)" class="st4 st5 st6">L</text>
<text transform="matrix(1.3446 0 0 1 54.0222 34.7707)" class="st4 st5 st7">S</text>
<text transform="matrix(1.2861 0 0 1 40.6007 33.2257)" class="st8 st5 st9">ívia</text>
</svg>
