<?xml version="1.0" encoding="utf-8"?>
<!-- Generator: Adobe Illustrator 25.0.0, SVG Export Plug-In . SVG Version: 6.00 Build 0)  -->
<svg version="1.1" id="Vrstva_1" xmlns="http://www.w3.org/2000/svg" xmlns:xlink="http://www.w3.org/1999/xlink" x="0px" y="0px"
	 viewBox="0 0 100 60" style="enable-background:new 0 0 100 60;" xml:space="preserve">
<style type="text/css">
	.st0{fill:#0000FF;stroke:#000000;stroke-miterlimit:10;}
	.st1{fill:none;stroke:#000000;stroke-miterlimit:10;}
	.st2{fill:none;stroke:#2A245D;stroke-width:0.75;stroke-miterlimit:10;}
	.st3{fill:none;stroke:#2A245D;stroke-width:0.75;stroke-linecap:square;stroke-linejoin:round;stroke-miterlimit:10;}
	.st4{fill:#6089C6;}
</style>
<path class="st0" d="M49.86,30.41"/>
<path class="st0" d="M49.86,30.41"/>
<path class="st0" d="M49.86,31.04"/>
<path class="st0" d="M49.86,31.04"/>
<path class="st1" d="M50,30.52"/>
<path class="st1" d="M50,30.52"/>
<ellipse class="st2" cx="50.23" cy="30.33" rx="14.67" ry="15.34"/>
<g>
	<path class="st3" d="M87.48,30.4c-20.59,20.59-53.9,20.59-74.49,0v-0.15c20.59-20.59,53.9-20.59,74.49,0V30.4z"/>
</g>
<path class="st1" d="M50,31.19"/>
<path class="st1" d="M50,31.19"/>
<g>
	<path class="st4" d="M55.14,27.53c-1.39-0.09-2.44-1.23-2.36-2.55c0.03-0.53,0.25-1,0.57-1.38c-0.88-0.42-1.85-0.67-2.89-0.67
		c-3.82,0-6.91,3.24-6.91,7.23c0,3.99,3.09,7.23,6.91,7.23s6.91-3.24,6.91-7.23c0-1.09-0.24-2.13-0.66-3.06
		C56.28,27.39,55.73,27.56,55.14,27.53z"/>
</g>
</svg>
